<svg width="835" height="812" viewBox="0 0 835 812" fill="none" xmlns="http://www.w3.org/2000/svg">
<path d="M156 245.5L206.5 134L281.5 166.5L263 274.5L170.5 327L156 245.5Z" fill="url(#paint0_linear_2_4)"/>
<path d="M265.5 284.5L174 339.5L268 486L362 588V541L265.5 284.5Z" fill="url(#paint1_linear_2_4)"/>
<path d="M206 437.5L130.5 428.5L201 500L206 437.5Z" fill="url(#paint2_linear_2_4)"/>
<path d="M197.5 515L115.5 428.5H113L1 496.5L21.5 590.5L130.5 593.5L197.5 515Z" fill="url(#paint3_linear_2_4)"/>
<path d="M206.5 717L36.5 601.5L135.5 606L255 684.5L206.5 717Z" fill="url(#paint4_linear_2_4)"/>
<path d="M205.5 522L142.5 598.5L268 679.5L284 668.5L400.5 719.5L417.5 689.5L205.5 522Z" fill="url(#paint5_linear_2_4)"/>
<path d="M284 679.5L197.5 736H201L251.5 756.5L413.5 739L284 679.5Z" fill="url(#paint6_linear_2_4)"/>
<path d="M191.5 744L177.5 781.5H181.5L238 762.5L191.5 744Z" fill="url(#paint7_linear_2_4)"/>
<path d="M248.5 767.5L197.5 785.5L395 797L422.5 749L248.5 767.5Z" fill="url(#paint8_linear_2_4)"/>
<path d="M426 762.5L409 797L430 803L525 756.5L503 719.5L426 762.5Z" fill="url(#paint9_linear_2_4)"/>
<path d="M530 767.5L446.5 803L480.5 811L617.5 785.5L530 767.5Z" fill="url(#paint10_linear_2_4)"/>
<path d="M594 727.5L632.5 781.5L534 756.5L514.5 717L594 727.5Z" fill="url(#paint11_linear_2_4)"/>
<path d="M731 756.5L632.5 762.5L625 756.5L731 695.5V756.5Z" fill="url(#paint12_linear_2_4)"/>
<path d="M738 695.5L746.5 756.5L827 717L738 695.5Z" fill="url(#paint13_linear_2_4)"/>
<path d="M738 679.5V637L803.5 643.5L834 705L738 679.5Z" fill="url(#paint14_linear_2_4)"/>
<path d="M760.5 601.5L766.5 562.5L803.5 568.5L760.5 601.5Z" fill="url(#paint15_linear_2_4)"/>
<path d="M803.5 464L766.5 548.5L818.5 562.5L803.5 464Z" fill="url(#paint16_linear_2_4)"/>
<path d="M570.5 712L746.5 562.5L600 534L490.5 712L507 701.5L570.5 712Z" fill="url(#paint17_linear_2_4)"/>
<path d="M700 380L586.5 421L600 522L760.5 548.5L803.5 443L700 380Z" fill="url(#paint18_linear_2_4)"/>
<path d="M577 437.5L594 527.5L468 727.5L435.5 739L413.5 719.5L577 437.5Z" fill="url(#paint19_linear_2_4)"/>
<path d="M376.5 245.5L409 632L370 598.5L376.5 245.5Z" fill="url(#paint20_linear_2_4)"/>
<path d="M430 663.5L422.5 653L376.5 150L468 205L503 437.5L485.434 555L480.5 588L430 663.5Z" fill="url(#paint21_linear_2_4)"/>
<path d="M480.5 211L530 245.5L507.735 397L480.5 211Z" fill="url(#paint22_linear_2_4)"/>
<path d="M570.5 421L490.5 555L543.028 252L671.5 191L617.5 402L570.5 421Z" fill="url(#paint23_linear_2_4)"/>
<path d="M544 230L671.5 179.5L577 49.5L544 230Z" fill="url(#paint24_linear_2_4)"/>
<path d="M514.5 117L563 58L534 230L477.5 195.5L514.5 117Z" fill="url(#paint25_linear_2_4)"/>
<path d="M507.735 100.5L563 38L490.5 1L507.735 100.5Z" fill="url(#paint26_linear_2_4)"/>
<path d="M468 191L376.5 134L477.5 4.83654L503 117L468 191Z" fill="url(#paint27_linear_2_4)"/>
<path d="M606.5 727.5L728 641V679.5L621 745L606.5 727.5Z" fill="url(#paint28_linear_2_4)"/>
<path d="M594 717L600 722L746.5 612L754 568.5L584.5 717H594Z" fill="url(#paint29_linear_2_4)"/>
<path d="M274 274.5L290.5 179.5L364.5 315.5L361.5 515L274 274.5Z" fill="url(#paint30_linear_2_4)"/>
<path d="M211.5 515L220 446.5L426 675L422.5 684.5L211.5 515Z" fill="url(#paint31_linear_2_4)"/>
<path d="M507 402L507.735 397M507.735 397L530 245.5L480.5 211L507.735 397ZM480.5 1L477.5 4.83654M477.5 4.83654L376.5 134L468 191L503 117L477.5 4.83654ZM206.5 134L156 245.5L170.5 327L263 274.5L281.5 166.5L206.5 134ZM174 339.5L265.5 284.5L362 541V588L268 486L174 339.5ZM130.5 428.5L206 437.5L201 500L130.5 428.5ZM115.5 428.5L197.5 515L130.5 593.5L21.5 590.5L1 496.5L113 428.5H115.5ZM36.5 601.5L206.5 717L255 684.5L135.5 606L36.5 601.5ZM142.5 598.5L205.5 522L417.5 689.5L400.5 719.5L284 668.5L268 679.5L142.5 598.5ZM197.5 736L284 679.5L413.5 739L251.5 756.5L201 736H197.5ZM177.5 781.5L191.5 744L238 762.5L181.5 781.5H177.5ZM197.5 785.5L248.5 767.5L422.5 749L395 797L197.5 785.5ZM409 797L426 762.5L503 719.5L525 756.5L430 803L409 797ZM446.5 803L530 767.5L617.5 785.5L480.5 811L446.5 803ZM632.5 781.5L594 727.5L514.5 717L534 756.5L632.5 781.5ZM632.5 762.5L731 756.5V695.5L625 756.5L632.5 762.5ZM746.5 756.5L738 695.5L827 717L746.5 756.5ZM738 637V679.5L834 705L803.5 643.5L738 637ZM766.5 562.5L760.5 601.5L803.5 568.5L766.5 562.5ZM766.5 548.5L803.5 464L818.5 562.5L766.5 548.5ZM746.5 562.5L570.5 712L507 701.5L490.5 712L600 534L746.5 562.5ZM586.5 421L700 380L803.5 443L760.5 548.5L600 522L586.5 421ZM594 527.5L577 437.5L413.5 719.5L435.5 739L468 727.5L594 527.5ZM409 632L376.5 245.5L370 598.5L409 632ZM422.5 653L430 663.5L480.5 588L485.434 555L503 437.5L468 205L376.5 150L422.5 653ZM490.5 555L570.5 421L617.5 402L671.5 191L543.028 252L490.5 555ZM671.5 179.5L544 230L577 49.5L671.5 179.5ZM563 58L514.5 117L477.5 195.5L534 230L563 58ZM563 38L507.735 100.5L490.5 1L563 38ZM728 641L606.5 727.5L621 745L728 679.5V641ZM600 722L594 717H584.5L754 568.5L746.5 612L600 722ZM290.5 179.5L274 274.5L361.5 515L364.5 315.5L290.5 179.5ZM220 446.5L211.5 515L422.5 684.5L426 675L220 446.5Z" stroke="#FF0000"/>
<defs>
<linearGradient id="paint0_linear_2_4" x1="388.5" y1="277" x2="399.5" y2="1065.5" gradientUnits="userSpaceOnUse">
<stop stop-color="#67FFED" stop-opacity="0.66"/>
<stop offset="0.932292" stop-color="#068B7B"/>
<stop offset="1" stop-opacity="0"/>
</linearGradient>
<linearGradient id="paint1_linear_2_4" x1="388.5" y1="277" x2="399.5" y2="1065.5" gradientUnits="userSpaceOnUse">
<stop stop-color="#67FFED" stop-opacity="0.66"/>
<stop offset="0.932292" stop-color="#068B7B"/>
<stop offset="1" stop-opacity="0"/>
</linearGradient>
<linearGradient id="paint2_linear_2_4" x1="388.5" y1="277" x2="399.5" y2="1065.5" gradientUnits="userSpaceOnUse">
<stop stop-color="#67FFED" stop-opacity="0.66"/>
<stop offset="0.932292" stop-color="#068B7B"/>
<stop offset="1" stop-opacity="0"/>
</linearGradient>
<linearGradient id="paint3_linear_2_4" x1="388.5" y1="277" x2="399.5" y2="1065.5" gradientUnits="userSpaceOnUse">
<stop stop-color="#67FFED" stop-opacity="0.66"/>
<stop offset="0.932292" stop-color="#068B7B"/>
<stop offset="1" stop-opacity="0"/>
</linearGradient>
<linearGradient id="paint4_linear_2_4" x1="388.5" y1="277" x2="399.5" y2="1065.5" gradientUnits="userSpaceOnUse">
<stop stop-color="#67FFED" stop-opacity="0.66"/>
<stop offset="0.932292" stop-color="#068B7B"/>
<stop offset="1" stop-opacity="0"/>
</linearGradient>
<linearGradient id="paint5_linear_2_4" x1="388.5" y1="277" x2="399.5" y2="1065.5" gradientUnits="userSpaceOnUse">
<stop stop-color="#67FFED" stop-opacity="0.66"/>
<stop offset="0.932292" stop-color="#068B7B"/>
<stop offset="1" stop-opacity="0"/>
</linearGradient>
<linearGradient id="paint6_linear_2_4" x1="388.5" y1="277" x2="399.5" y2="1065.5" gradientUnits="userSpaceOnUse">
<stop stop-color="#67FFED" stop-opacity="0.66"/>
<stop offset="0.932292" stop-color="#068B7B"/>
<stop offset="1" stop-opacity="0"/>
</linearGradient>
<linearGradient id="paint7_linear_2_4" x1="388.5" y1="277" x2="399.5" y2="1065.5" gradientUnits="userSpaceOnUse">
<stop stop-color="#67FFED" stop-opacity="0.66"/>
<stop offset="0.932292" stop-color="#068B7B"/>
<stop offset="1" stop-opacity="0"/>
</linearGradient>
<linearGradient id="paint8_linear_2_4" x1="388.5" y1="277" x2="399.5" y2="1065.5" gradientUnits="userSpaceOnUse">
<stop stop-color="#67FFED" stop-opacity="0.66"/>
<stop offset="0.932292" stop-color="#068B7B"/>
<stop offset="1" stop-opacity="0"/>
</linearGradient>
<linearGradient id="paint9_linear_2_4" x1="388.5" y1="277" x2="399.5" y2="1065.5" gradientUnits="userSpaceOnUse">
<stop stop-color="#67FFED" stop-opacity="0.66"/>
<stop offset="0.932292" stop-color="#068B7B"/>
<stop offset="1" stop-opacity="0"/>
</linearGradient>
<linearGradient id="paint10_linear_2_4" x1="388.5" y1="277" x2="399.5" y2="1065.5" gradientUnits="userSpaceOnUse">
<stop stop-color="#67FFED" stop-opacity="0.66"/>
<stop offset="0.932292" stop-color="#068B7B"/>
<stop offset="1" stop-opacity="0"/>
</linearGradient>
<linearGradient id="paint11_linear_2_4" x1="388.5" y1="277" x2="399.5" y2="1065.5" gradientUnits="userSpaceOnUse">
<stop stop-color="#67FFED" stop-opacity="0.66"/>
<stop offset="0.932292" stop-color="#068B7B"/>
<stop offset="1" stop-opacity="0"/>
</linearGradient>
<linearGradient id="paint12_linear_2_4" x1="388.5" y1="277" x2="399.5" y2="1065.5" gradientUnits="userSpaceOnUse">
<stop stop-color="#67FFED" stop-opacity="0.66"/>
<stop offset="0.932292" stop-color="#068B7B"/>
<stop offset="1" stop-opacity="0"/>
</linearGradient>
<linearGradient id="paint13_linear_2_4" x1="388.5" y1="277" x2="399.5" y2="1065.5" gradientUnits="userSpaceOnUse">
<stop stop-color="#67FFED" stop-opacity="0.66"/>
<stop offset="0.932292" stop-color="#068B7B"/>
<stop offset="1" stop-opacity="0"/>
</linearGradient>
<linearGradient id="paint14_linear_2_4" x1="388.5" y1="277" x2="399.5" y2="1065.5" gradientUnits="userSpaceOnUse">
<stop stop-color="#67FFED" stop-opacity="0.66"/>
<stop offset="0.932292" stop-color="#068B7B"/>
<stop offset="1" stop-opacity="0"/>
</linearGradient>
<linearGradient id="paint15_linear_2_4" x1="388.5" y1="277" x2="399.5" y2="1065.5" gradientUnits="userSpaceOnUse">
<stop stop-color="#67FFED" stop-opacity="0.66"/>
<stop offset="0.932292" stop-color="#068B7B"/>
<stop offset="1" stop-opacity="0"/>
</linearGradient>
<linearGradient id="paint16_linear_2_4" x1="388.5" y1="277" x2="399.5" y2="1065.5" gradientUnits="userSpaceOnUse">
<stop stop-color="#67FFED" stop-opacity="0.66"/>
<stop offset="0.932292" stop-color="#068B7B"/>
<stop offset="1" stop-opacity="0"/>
</linearGradient>
<linearGradient id="paint17_linear_2_4" x1="388.5" y1="277" x2="399.5" y2="1065.5" gradientUnits="userSpaceOnUse">
<stop stop-color="#67FFED" stop-opacity="0.66"/>
<stop offset="0.932292" stop-color="#068B7B"/>
<stop offset="1" stop-opacity="0"/>
</linearGradient>
<linearGradient id="paint18_linear_2_4" x1="388.5" y1="277" x2="399.5" y2="1065.5" gradientUnits="userSpaceOnUse">
<stop stop-color="#67FFED" stop-opacity="0.66"/>
<stop offset="0.932292" stop-color="#068B7B"/>
<stop offset="1" stop-opacity="0"/>
</linearGradient>
<linearGradient id="paint19_linear_2_4" x1="388.5" y1="277" x2="399.5" y2="1065.5" gradientUnits="userSpaceOnUse">
<stop stop-color="#67FFED" stop-opacity="0.66"/>
<stop offset="0.932292" stop-color="#068B7B"/>
<stop offset="1" stop-opacity="0"/>
</linearGradient>
<linearGradient id="paint20_linear_2_4" x1="388.5" y1="277" x2="399.5" y2="1065.5" gradientUnits="userSpaceOnUse">
<stop stop-color="#67FFED" stop-opacity="0.66"/>
<stop offset="0.932292" stop-color="#068B7B"/>
<stop offset="1" stop-opacity="0"/>
</linearGradient>
<linearGradient id="paint21_linear_2_4" x1="388.5" y1="277" x2="399.5" y2="1065.5" gradientUnits="userSpaceOnUse">
<stop stop-color="#67FFED" stop-opacity="0.66"/>
<stop offset="0.932292" stop-color="#068B7B"/>
<stop offset="1" stop-opacity="0"/>
</linearGradient>
<linearGradient id="paint22_linear_2_4" x1="388.5" y1="277" x2="399.5" y2="1065.5" gradientUnits="userSpaceOnUse">
<stop stop-color="#67FFED" stop-opacity="0.66"/>
<stop offset="0.932292" stop-color="#068B7B"/>
<stop offset="1" stop-opacity="0"/>
</linearGradient>
<linearGradient id="paint23_linear_2_4" x1="388.5" y1="277" x2="399.5" y2="1065.5" gradientUnits="userSpaceOnUse">
<stop stop-color="#67FFED" stop-opacity="0.66"/>
<stop offset="0.932292" stop-color="#068B7B"/>
<stop offset="1" stop-opacity="0"/>
</linearGradient>
<linearGradient id="paint24_linear_2_4" x1="388.5" y1="277" x2="399.5" y2="1065.5" gradientUnits="userSpaceOnUse">
<stop stop-color="#67FFED" stop-opacity="0.66"/>
<stop offset="0.932292" stop-color="#068B7B"/>
<stop offset="1" stop-opacity="0"/>
</linearGradient>
<linearGradient id="paint25_linear_2_4" x1="388.5" y1="277" x2="399.5" y2="1065.5" gradientUnits="userSpaceOnUse">
<stop stop-color="#67FFED" stop-opacity="0.66"/>
<stop offset="0.932292" stop-color="#068B7B"/>
<stop offset="1" stop-opacity="0"/>
</linearGradient>
<linearGradient id="paint26_linear_2_4" x1="388.5" y1="277" x2="399.5" y2="1065.5" gradientUnits="userSpaceOnUse">
<stop stop-color="#67FFED" stop-opacity="0.66"/>
<stop offset="0.932292" stop-color="#068B7B"/>
<stop offset="1" stop-opacity="0"/>
</linearGradient>
<linearGradient id="paint27_linear_2_4" x1="388.5" y1="277" x2="399.5" y2="1065.5" gradientUnits="userSpaceOnUse">
<stop stop-color="#67FFED" stop-opacity="0.66"/>
<stop offset="0.932292" stop-color="#068B7B"/>
<stop offset="1" stop-opacity="0"/>
</linearGradient>
<linearGradient id="paint28_linear_2_4" x1="388.5" y1="277" x2="399.5" y2="1065.5" gradientUnits="userSpaceOnUse">
<stop stop-color="#67FFED" stop-opacity="0.66"/>
<stop offset="0.932292" stop-color="#068B7B"/>
<stop offset="1" stop-opacity="0"/>
</linearGradient>
<linearGradient id="paint29_linear_2_4" x1="388.5" y1="277" x2="399.5" y2="1065.5" gradientUnits="userSpaceOnUse">
<stop stop-color="#67FFED" stop-opacity="0.66"/>
<stop offset="0.932292" stop-color="#068B7B"/>
<stop offset="1" stop-opacity="0"/>
</linearGradient>
<linearGradient id="paint30_linear_2_4" x1="388.5" y1="277" x2="399.5" y2="1065.5" gradientUnits="userSpaceOnUse">
<stop stop-color="#67FFED" stop-opacity="0.66"/>
<stop offset="0.932292" stop-color="#068B7B"/>
<stop offset="1" stop-opacity="0"/>
</linearGradient>
<linearGradient id="paint31_linear_2_4" x1="388.5" y1="277" x2="399.5" y2="1065.5" gradientUnits="userSpaceOnUse">
<stop stop-color="#67FFED" stop-opacity="0.66"/>
<stop offset="0.932292" stop-color="#068B7B"/>
<stop offset="1" stop-opacity="0"/>
</linearGradient>
</defs>
</svg>
